<svg id="exn52feG3XQ1" xmlns="http://www.w3.org/2000/svg" xmlns:xlink="http://www.w3.org/1999/xlink" viewBox="0 0 154 34" shape-rendering="geometricPrecision" text-rendering="geometricPrecision"><g transform="translate(0 0.000001)"><path d="M45.1094,22.6914c0,.7422-.1524,1.3125-.4571,1.7109-.2968.3985-.7929.5977-1.4882.5977-.6563,0-1.1211-.1992-1.3946-.5977-.2656-.3984-.3984-.9687-.3984-1.7109v-12.3867c0-.7422.1328-1.31251.3984-1.71095.2735-.39844.7383-.59766,1.3946-.59766.6953,0,1.1914.19922,1.4882.59766.3047.39844.4571.96875.4571,1.71095v12.3867Z" fill="#09355d"/><path d="M44.9711,18.366844c0,.523784-.146762.926256-.440189,1.207414-.285821.281229-.763567.421808-1.433144.421808-.63202,0-1.079625-.140579-1.343005-.421808-.255774-.281158-.383662-.68363-.383662-1.207414v-8.741525c0-.523784.127888-.926263.383662-1.207449.26338-.281187.710985-.42178,1.343005-.42178.669577,0,1.147323.140593,1.433144.42178.293427.281186.440189.683665.440189,1.207449v8.741525Z" transform="matrix(0 1-1.000002 0 61.367206-33.37501)" fill="#09355d"/><path d="M45.1111,18.366844c0,.523784-.15247.926256-.457307,1.207414-.296936.281229-.793262.421808-1.488878.421808-.656598,0-1.12161-.140579-1.395233-.421808-.265721-.281158-.398582-.68363-.398582-1.207414v-8.741525c0-.523784.132861-.926263.398582-1.207449.273623-.281186.738635-.42178,1.395233-.42178.695616,0,1.191942.140594,1.488878.42178.304837.281186.457307.683665.457307,1.207449v8.741525Z" transform="matrix(0 1-1.000002 0 61.367206-27.006725)" fill="#09355d"/><path d="M44.9711,18.366844c0,.523784-.146763.926256-.440189,1.207414-.28582.281229-.763567.421808-1.433144.421808-.63202,0-1.079625-.140579-1.343005-.421808-.255774-.281158-.383662-.68363-.383662-1.207414v-8.741525c0-.523784.127888-.926263.383662-1.207449.26338-.281186.710985-.42178,1.343005-.42178.669577,0,1.147324.140594,1.433144.42178.293426.281186.440189.683665.440189,1.207449v8.741525Z" transform="matrix(0 1-1.000002 0 61.367206-19.8539)" fill="#09355d"/></g><path d="M46.2442,19.0938c0-.8282.1328-1.6094.3985-2.3438.2734-.7422.6796-1.3906,1.2187-1.9453.5469-.5547,1.2266-.9961,2.0391-1.3242.8203-.3282,1.7812-.4922,2.8828-.4922c1.0547,0,1.9883.1523,2.8008.457s1.4961.7305,2.0507,1.2774c.5547.539.9766,1.1835,1.2657,1.9335.289.7422.4336,1.5547.4336,2.4376c0,.8203-.1368,1.5976-.4102,2.332-.2734.7265-.6836,1.3672-1.2305,1.9219-.5468.5468-1.2304.9843-2.0507,1.3125-.8204.3203-1.7735.4804-2.8594.4804-1.0703,0-2.0156-.1523-2.836-.457-.8125-.3125-1.496-.7383-2.0507-1.2774-.5469-.5468-.961-1.1874-1.2422-1.9218-.2735-.7422-.4102-1.5391-.4102-2.3906Zm3.9024,0c0,.5156.0468,1.0078.1406,1.4765.0937.4609.2422.8672.4453,1.2188.2109.3515.4844.6328.8203.8437.336.2031.7461.3047,1.2305.3047.4453,0,.832-.0937,1.1601-.2813.336-.1874.6094-.4492.8204-.7851.2187-.3359.3828-.7383.4921-1.207.1094-.4766.1641-1,.1641-1.5703c0-.5157-.0508-1.004-.1523-1.4649-.0938-.4687-.2461-.8789-.4571-1.2305-.2109-.3593-.4843-.6406-.8203-.8437-.3281-.2109-.7305-.3164-1.207-.3164s-.8828.1015-1.2188.3047-.6093.4804-.8203.832-.3633.7617-.457,1.2305c-.0938.4687-.1406.9648-.1406,1.4883Z" transform="translate(8.99605 0.222603)" fill="#09355d"/><path d="M68.9533,22.7383c-.211.3906-.4688.7226-.7735.9961-.2968.2734-.6289.5-.996.6797-.3594.1718-.7461.3007-1.1602.3867-.4063.0781-.8242.1172-1.2539.1172-.7188,0-1.375-.1289-1.9688-.3868-.5937-.2578-1.1054-.6289-1.5351-1.1132-.4219-.4922-.75-1.0938-.9844-1.8047s-.3516-1.5235-.3516-2.4375c0-.8594.1094-1.6641.3282-2.4141.2187-.75.5351-1.4023.9492-1.957.4219-.5547.9375-.9922,1.5469-1.3125.6093-.3203,1.3047-.4805,2.0859-.4805.8906,0,1.6797.1719,2.3672.5156.6953.3438,1.293.9063,1.793,1.6875v-.3046c0-.5625.1523-.9844.457-1.2657.3125-.289.7422-.4336,1.2891-.4336.3281,0,.6054.0547.832.1641.2265.1016.4062.2578.539.4688.1329.2031.2266.457.2813.7617.0625.2968.0937.6367.0937,1.0195v7.8516c0,.9531-.121,1.8046-.3632,2.5546-.2344.75-.6016,1.3829-1.1016,1.8985s-1.1406.9062-1.9219,1.1719c-.7812.2734-1.7109.4101-2.789.4101-.7578,0-1.4297-.0351-2.0157-.1055-.5781-.0624-1.0781-.1601-1.5-.2929-.4218-.1485-.7421-.3125-.9609-.4922-.2109-.1797-.3164-.4141-.3164-.7031c0-.1641.0234-.3203.0703-.4688s.1172-.2812.2109-.3984c.1016-.1094.2305-.1992.3868-.2696.164-.0624.3632-.0937.5976-.0937.25,0,.5.0156.75.0469.2578.0312.5235.0625.7969.0937.2812.0391.5742.0742.8789.1055.3125.0312.6484.0469,1.0078.0469.4297,0,.8125-.043,1.1485-.1289.3359-.086.621-.2383.8554-.4571s.4141-.5117.5391-.8789c.125-.3594.1875-.8203.1875-1.3828v-1.3945Zm0-3.6445c0-.5704-.043-1.0899-.1289-1.5586-.0781-.4688-.2149-.8672-.4102-1.1954-.1953-.3359-.457-.5937-.7851-.7734-.3282-.1875-.7383-.2812-1.2305-.2812-.4844,0-.8867.0976-1.207.2929-.3125.1953-.5625.4649-.75.8086s-.3203.7461-.3985,1.2071c-.0703.4609-.1054.9531-.1054,1.4765c0,1.1953.2109,2.0938.6328,2.6953.4218.6016,1.0351.9024,1.8398.9024.375-.0078.7149-.0782,1.0195-.211.3125-.1406.5821-.3554.8086-.6445.2266-.2891.4024-.6563.5274-1.1016s.1875-.9843.1875-1.6171Z" transform="matrix(1 0 0-1 48.8343 38.48155)" fill="#09355d"/><path d="M96.8969,19.0703c0,.5235.039,1.0117.1172,1.4649.0859.4531.2265.8515.4218,1.1953.2032.3359.4688.6015.7969.7968.3359.1954.75.293,1.2422.293.4531,0,.832-.0937,1.137-.2812.312-.1953.562-.461.75-.7969.187-.3438.32-.7461.398-1.207.086-.461.129-.961.129-1.5c0-.4297-.031-.8672-.094-1.3125-.062-.4532-.179-.8633-.351-1.2305s-.41-.668-.715-.9024-.703-.3515-1.1954-.3515c-.4922,0-.9102.0781-1.2539.2344-.336.1562-.6094.3945-.8203.7148-.2032.3203-.3477.7227-.4336,1.207-.086.4766-.1289,1.0352-.1289,1.6758Zm-.0117-3.5508c.1953-.414.4453-.7773.75-1.0898s.6406-.5742,1.0078-.7852.75-.3672,1.1484-.4687c.4066-.1094.8086-.1641,1.2066-.1641.719,0,1.368.1602,1.946.4805s1.07.7578,1.476,1.3125c.414.5469.731,1.1953.95,1.9453.218.7422.328,1.5391.328,2.3906c0,.8828-.118,1.6914-.352,2.4258-.226.7344-.551,1.3672-.973,1.8984-.414.5235-.914.9336-1.5,1.2305-.578.2969-1.222.4453-1.933.4453-.875,0-1.6564-.2031-2.3439-.6094-.6875-.4062-1.2578-.9765-1.7109-1.7109v4.2188c0,.7421-.1524,1.3125-.4571,1.7109-.2969.3984-.7929.5977-1.4883.5977-.6562,0-1.1211-.1993-1.3945-.5977-.2656-.3984-.3984-.9688-.3984-1.7109v-11.5196c0-.7422.1328-1.3125.3984-1.7109.2734-.3984.7383-.5977,1.3945-.5977.6954,0,1.1914.1993,1.4883.5977.3047.3984.4571.9687.4571,1.7109Z" transform="translate(1.7577 0.3375)" fill="#09355d"/><path d="M109.821,16.3516c0,.3046.133.5429.398.7148.266.1641.633.3008,1.102.4102.445.1015.902.1992,1.371.2929s.926.2032,1.371.3282c.445.1171.863.2578,1.254.4218.39.1641.734.3711,1.031.6211.297.2422.531.5391.703.8906.172.3438.258.7579.258,1.2422c0,.6094-.125,1.1524-.375,1.6289-.25.4688-.605.8672-1.066,1.1954-.453.3281-.996.582-1.629.7617s-1.332.2734-2.098.2812c-.726,0-1.426-.0468-2.098-.1406-.671-.0859-1.269-.2227-1.793-.4102-.515-.1875-.929-.4179-1.242-.6914-.312-.2812-.468-.6093-.468-.9843c0-.3282.105-.5821.316-.7618s.48-.2695.809-.2695c.125,0,.273.0234.445.0703s.359.1055.562.1758.418.1484.645.2344c.234.0781.476.1484.726.2109.313.086.633.1563.961.211.336.0468.68.0703,1.032.0703.218,0,.433-.0196.644-.0586.211-.0469.399-.1133.563-.1992.172-.0938.312-.211.422-.3516.109-.1406.175-.3125.199-.5156.023-.0469.043-.0938.058-.1407.016-.0468.024-.1015.024-.164c0-.2188-.102-.4141-.305-.586-.195-.1718-.473-.3086-.832-.4101-.602-.1406-1.176-.2695-1.723-.3867-.546-.1172-1.054-.2422-1.523-.375-.461-.1328-.883-.2852-1.266-.4571-.375-.1718-.695-.3828-.961-.6328-.257-.25-.461-.5508-.609-.9023-.141-.3516-.211-.7774-.211-1.2774c0-.539.121-1.0195.363-1.4414.25-.4297.606-.789,1.067-1.0781s1.019-.5078,1.676-.6562c.656-.1563,1.398-.2344,2.226-.2344c1.484,0,2.613.1797,3.387.539.781.3516,1.172.8125,1.172,1.3829c0,.3203-.106.5664-.317.7382-.211.1641-.465.2461-.761.2461-.157,0-.321-.0273-.493-.082-.164-.0625-.363-.1289-.597-.1992-.235-.0781-.516-.1445-.844-.1992-.32-.0625-.719-.0938-1.195-.0938-.36,0-.688.0156-.985.0469-.289.0312-.539.0859-.75.164-.203.0782-.363.1836-.48.3165-.11.1328-.164.3007-.164.5039Z" transform="translate(-23.26765 0.32925)" fill="#09355d"/><path d="M122.065,20.6523c0,.3672.047.6875.141.961.101.2734.238.5039.41.6914.172.1797.371.3164.597.4101.235.086.485.129.75.129.313,0,.614-.0469.903-.1407.289-.0937.543-.2383.762-.4336.226-.1953.406-.4414.539-.7383.132-.2968.199-.6445.199-1.0429v-4.9688c0-.7422.133-1.3125.398-1.7109.274-.3984.739-.5977,1.395-.5977.695,0,1.191.1993,1.488.5977.305.3984.457.9687.457,1.7109v7.1719c0,.7422-.152,1.3125-.457,1.7109-.297.3985-.793.5977-1.488.5977-.656,0-1.121-.1992-1.395-.5977-.265-.3984-.398-.9687-.398-1.7109-.164.3594-.379.6875-.645.9844-.258.2969-.562.5547-.914.7734-.344.211-.726.375-1.148.4922-.414.1172-.864.1758-1.348.1758-.523,0-1.027-.0899-1.512-.2695-.476-.1875-.898-.461-1.265-.8204-.367-.3671-.66-.8203-.879-1.3593s-.328-1.168-.328-1.8868v-5.2617c0-.7422.133-1.3125.398-1.7109.274-.3984.738-.5977,1.395-.5977.695,0,1.191.1993,1.488.5977.305.3984.457.9687.457,1.7109v5.1328Z" transform="translate(-48.2155 0.246003)" fill="#09355d"/><path d="M17,23c-3.3137,0-6-2.6863-6-6s2.6863-6,6-6s6,2.6863,6,6-2.6863,6-6,6Z" fill="#51a3ee"/><path d="M5.37623,19.0496c-1.73875.3066-2.93057,1.9862-2.26312,3.6208.93184,2.282,2.41847,4.3152,4.34578,5.904c2.75591,2.2717,6.23191,3.4856,9.80291,3.4233s7.0026-1.3968,9.6776-3.7634c1.8706-1.655,3.2854-3.7389,4.1371-6.052.61-1.6569-.6398-3.2939-2.3882-3.5396s-3.3181,1.0269-4.1817,2.5669c-.4681.8347-1.0758,1.592-1.8038,2.2361-1.5348,1.3579-3.5037,2.1235-5.5525,2.1593-2.0489.0357-4.0433-.6607-5.6245-1.9642-.7501-.6183-1.3838-1.3539-1.88078-2.1718-.91679-1.5089-2.53004-2.726-4.26879-2.4194Z" fill="#51a3ee"/><path d="M31.884,18.8745C31.9606,18.2604,32,17.6348,32,17C32,8.71573,25.2843,2,17,2s-15,6.71573-15,15c0,.8147.06495,1.6142.18996,2.3937.68898-.9432,1.7643-1.6165,2.9258-1.8213c1.25669-.2216,2.39882.0832,3.36451.6529C8.42322,17.8251,8.3937,17.416,8.3937,17c0-4.7531,3.8532-8.6063,8.6063-8.6063s8.6063,3.8532,8.6063,8.6063c0,.3134-.0168.6229-.0494.9276.9453-.6033,2.0763-.948,3.3402-.7703c1.1676.1641,2.2654.7991,2.9869,1.7172Z" fill="#0e4f8b"/><path d="M45.1094,22.6914c0,.7422-.1524,1.3125-.4571,1.7109-.2968.3985-.7929.5977-1.4882.5977-.6563,0-1.1211-.1992-1.3946-.5977-.2656-.3984-.3984-.9687-.3984-1.7109v-12.3867c0-.7422.1328-1.31251.3984-1.71095.2735-.39844.7383-.59766,1.3946-.59766.6953,0,1.1914.19922,1.4882.59766.3047.39844.4571.96875.4571,1.71095v12.3867Z" transform="translate(23.22075 0.501955)" fill="#09355d"/><path d="M45.1094,22.6914c0,.7422-.1524,1.3125-.4571,1.7109-.2968.3985-.7929.5977-1.4882.5977-.6563,0-1.1211-.1992-1.3946-.5977-.2656-.3984-.3984-.9687-.3984-1.7109v-12.3867c0-.7422.1328-1.31251.3984-1.71095.2735-.39844.7383-.59766,1.3946-.59766.6953,0,1.1914.19922,1.4882.59766.3047.39844.4571.96875.4571,1.71095v12.3867Z" transform="translate(82.850107 0.606331)" fill="#09355d"/><path d="M45.1094,22.6914c0,.7422-.1524,1.3125-.4571,1.7109-.2968.3985-.7929.5977-1.4882.5977-.6563,0-1.1211-.1992-1.3946-.5977-.2656-.3984-.3984-.9687-.3984-1.7109v-12.3867c0-.7422.1328-1.31251.3984-1.71095.2735-.39844.7383-.59766,1.3946-.59766.6953,0,1.1914.19922,1.4882.59766.3047.39844.4571.96875.4571,1.71095v12.3867Z" transform="matrix(-.642788-.766044-.556545 0.466997 167.784907 39.427235)" fill="#09355d"/><path d="M45.1094,22.6914c0,.7422-.1524,1.3125-.4571,1.7109-.2968.3985-.7929.5977-1.4882.5977-.6563,0-1.1211-.1992-1.3946-.5977-.2656-.3984-.3984-.9687-.3984-1.7109v-12.3867c0-.7422.1328-1.31251.3984-1.71095.2735-.39844.7383-.59766,1.3946-.59766.6953,0,1.1914.19922,1.4882.59766.3047.39844.4571.96875.4571,1.71095v12.3867Z" transform="matrix(.5-.866025-.629183-.363259 119.568869 63.645407)" fill="#09355d"/></svg>
